<?xml version="1.0" encoding="UTF-8"?>
<svg id="_레이어_3" data-name="레이어 3" xmlns="http://www.w3.org/2000/svg" viewBox="0 0 160 160">
  <path d="M145.54,154.8h-40.69v-3.5,3.5H15.34c-6.42,0-11.64-5.22-11.64-11.64v-61.73c0-3.11,1.21-6.03,3.41-8.23L72.21,8.11c2.2-2.2,5.12-3.41,8.23-3.41s6.03,1.21,8.23,3.41l65.1,65.1c2.2,2.2,3.41,5.12,3.41,8.23v61.73c0,6.42-5.22,11.64-11.64,11.64ZM108.35,147.8h37.19c2.56,0,4.64-2.08,4.64-4.64v-61.73c0-1.22-.5-2.42-1.36-3.28L83.72,13.06c-1.81-1.81-4.75-1.81-6.56,0L12.06,78.16c-.86.86-1.36,2.06-1.36,3.28v61.73c0,2.56,2.08,4.64,4.64,4.64h37.19v-45.33c0-6.42,5.22-11.64,11.64-11.64h32.55c6.42,0,11.64,5.22,11.64,11.64v45.33ZM59.52,147.8h41.83v-45.33c0-2.56-2.08-4.64-4.64-4.64h-32.55c-2.56,0-4.64,2.08-4.64,4.64v45.33Z"/>
</svg>