<?xml version="1.0" encoding="UTF-8"?>
<svg id="_레이어_3" data-name="레이어 3" xmlns="http://www.w3.org/2000/svg" viewBox="0 0 160 160">
  <path d="M45.75,3.2c-4.26,0-7.77,3.51-7.77,7.77v31.07c0,3.44,5.18,3.47,5.18,0V10.96c0-1.48,1.11-2.59,2.59-2.59h103.55c1.48,0,2.59,1.11,2.59,2.59v139.8c0,1.48-1.11,2.59-2.59,2.59H45.75c-1.48,0-2.59-1.11-2.59-2.59v-36.24c0-3.42-5.18-3.39-5.18,0v36.24c0,4.26,3.51,7.77,7.77,7.77h103.55c4.26,0,7.77-3.51,7.77-7.77V10.96c0-4.26-3.51-7.77-7.77-7.77H45.75ZM25.04,101.57c2.33,0,3.33-2.91,1.83-4.42l-18.88-18.88,18.88-18.88c2.29-2.21-1.32-6.01-3.67-3.67L2.49,76.44c-1.01,1.01-1.01,2.65,0,3.67l20.71,20.71c.49.5,1.14.76,1.83.76ZM92.34,80.86H19.86c-1.43,0-2.59-1.15-2.59-2.59s1.15-2.59,2.59-2.59h72.49c1.43,0,2.59,1.15,2.59,2.59s-1.15,2.59-2.59,2.59Z"/>
</svg>