<?xml version="1.0" encoding="UTF-8"?>
<svg id="_레이어_4" data-name="레이어 4" xmlns="http://www.w3.org/2000/svg" viewBox="0 0 72.96 72.96">
  <defs>
    <style>
      .cls-1 {
        fill: #fff;
      }

      .cls-2 {
        fill: #03c75a;
      }
    </style>
  </defs>
  <circle class="cls-2" cx="36.5" cy="36.5" r="36.5"/>
  <path class="cls-1" d="M44.02,51.08c-.41,0-.68-.03-.82-.1-.14-.07-.31-.25-.51-.54l-12.75-17.87v17.55c0,.43-.05.7-.15.8s-.43.16-.97.16h-5.64c-.51,0-.83-.05-.97-.16-.14-.11-.2-.38-.2-.8v-29.03c0-.46.06-.75.18-.89.12-.13.48-.2,1.1-.2h6.05c.41,0,.68.04.82.12.14.08.32.3.56.64l12.55,17.71v-17.51c0-.4.06-.66.18-.79.12-.12.43-.18.94-.18h5.59c.61,0,.97.07,1.07.2s.15.39.15.76v28.99c0,.51-.07.83-.2.95-.14.12-.51.18-1.12.18h-5.85Z"/>
</svg>